<svg xmlns="http://www.w3.org/2000/svg" width="720" height="720" fill="none" viewBox="0 0 720 720"><rect width="480" height="480" fill="#fff" transform="translate(120 120)"/><g opacity=".4"><g opacity=".2"><rect width="20" height="480" x="580" y="120" stroke="#000"/><rect width="20" height="480" x="560" y="120" stroke="#000"/><rect width="20" height="480" x="540" y="120" stroke="#000"/><rect width="20" height="480" x="520" y="120" stroke="#000"/><rect width="20" height="480" x="500" y="120" stroke="#000"/><rect width="20" height="480" x="480" y="120" stroke="#000"/><rect width="20" height="480" x="460" y="120" stroke="#000"/><rect width="20" height="480" x="440" y="120" stroke="#000"/><rect width="20" height="480" x="420" y="120" stroke="#000"/><rect width="20" height="480" x="400" y="120" stroke="#000"/><rect width="20" height="480" x="380" y="120" stroke="#000"/><rect width="20" height="480" x="360" y="120" stroke="#000"/><rect width="20" height="480" x="340" y="120" stroke="#000"/><rect width="20" height="480" x="320" y="120" stroke="#000"/><rect width="20" height="480" x="300" y="120" stroke="#000"/><rect width="20" height="480" x="280" y="120" stroke="#000"/><rect width="20" height="480" x="260" y="120" stroke="#000"/><rect width="20" height="480" x="240" y="120" stroke="#000"/><rect width="20" height="480" x="220" y="120" stroke="#000"/><rect width="20" height="480" x="200" y="120" stroke="#000"/><rect width="20" height="480" x="180" y="120" stroke="#000"/><rect width="20" height="480" x="160" y="120" stroke="#000"/><rect width="20" height="480" x="140" y="120" stroke="#000"/><rect width="20" height="480" x="120" y="120" stroke="#000"/></g><g opacity=".2"><rect width="20" height="480" x="600" y="580" stroke="#000" transform="rotate(90 600 580)"/><rect width="20" height="480" x="600" y="560" stroke="#000" transform="rotate(90 600 560)"/><rect width="20" height="480" x="600" y="540" stroke="#000" transform="rotate(90 600 540)"/><rect width="20" height="480" x="600" y="520" stroke="#000" transform="rotate(90 600 520)"/><rect width="20" height="480" x="600" y="500" stroke="#000" transform="rotate(90 600 500)"/><rect width="20" height="480" x="600" y="480" stroke="#000" transform="rotate(90 600 480)"/><rect width="20" height="480" x="600" y="460" stroke="#000" transform="rotate(90 600 460)"/><rect width="20" height="480" x="600" y="440" stroke="#000" transform="rotate(90 600 440)"/><rect width="20" height="480" x="600" y="420" stroke="#000" transform="rotate(90 600 420)"/><rect width="20" height="480" x="600" y="400" stroke="#000" transform="rotate(90 600 400)"/><rect width="20" height="480" x="600" y="380" stroke="#000" transform="rotate(90 600 380)"/><rect width="20" height="480" x="600" y="360" stroke="#000" transform="rotate(90 600 360)"/><rect width="20" height="480" x="600" y="340" stroke="#000" transform="rotate(90 600 340)"/><rect width="20" height="480" x="600" y="320" stroke="#000" transform="rotate(90 600 320)"/><rect width="20" height="480" x="600" y="300" stroke="#000" transform="rotate(90 600 300)"/><rect width="20" height="480" x="600" y="280" stroke="#000" transform="rotate(90 600 280)"/><rect width="20" height="480" x="600" y="260" stroke="#000" transform="rotate(90 600 260)"/><rect width="20" height="480" x="600" y="240" stroke="#000" transform="rotate(90 600 240)"/><rect width="20" height="480" x="600" y="220" stroke="#000" transform="rotate(90 600 220)"/><rect width="20" height="480" x="600" y="200" stroke="#000" transform="rotate(90 600 200)"/><rect width="20" height="480" x="600" y="180" stroke="#000" transform="rotate(90 600 180)"/><rect width="20" height="480" x="600" y="160" stroke="#000" transform="rotate(90 600 160)"/><rect width="20" height="480" x="600" y="140" stroke="#000" transform="rotate(90 600 140)"/><rect width="20" height="480" x="600" y="120" stroke="#000" transform="rotate(90 600 120)"/></g></g><rect width="478" height="478" x="121" y="121" stroke="#AAA" stroke-width="2"/><g opacity=".4"><path fill="#000" fill-rule="evenodd" d="M300.006 160.006V200.006H320.006V180.006H399.986V200.006H419.986V160.006H300.006ZM460.618 540.002H259.378L239.978 259.342L220.018 260.642L240.618 560.002H479.378L499.978 260.642L480.018 259.342L460.618 540.002ZM520 240H200V220H520V240ZM310 500H330V280H310V500ZM410 500H390V280H410V500Z" clip-rule="evenodd"/></g><path fill="#DE3636" d="M271.532 71H276.396V47.544H273.036L266.412 49.528L267.436 53.56L271.532 52.536V71ZM291.321 67.192C288.889 67.192 286.841 65.176 286.841 62.136V62.072C286.841 59.032 288.889 57.016 291.321 57.016C293.753 57.016 295.801 59.032 295.801 62.072V62.136C295.801 65.24 293.753 67.192 291.321 67.192ZM282.041 76.312H286.905V68.6C288.121 70.072 289.817 71.352 292.537 71.352C296.761 71.352 300.665 68.056 300.665 62.136V62.072C300.665 56.152 296.697 52.888 292.537 52.888C289.881 52.888 288.153 54.168 286.905 55.864V53.208H282.041V76.312ZM307.697 53.208H302.481L308.529 61.944L302.225 71H307.313L311.057 65.272L314.801 71H320.017L313.713 61.88L319.761 53.208H314.673L311.153 58.552L307.697 53.208ZM339.843 71.32C343.683 71.32 346.627 69.528 346.627 65.624V65.56C346.627 62.296 343.715 61.112 341.219 60.312C339.267 59.64 337.507 59.16 337.507 58.104V58.04C337.507 57.272 338.211 56.696 339.491 56.696C340.835 56.696 342.595 57.336 344.355 58.36L346.211 55C344.291 53.72 341.859 52.952 339.619 52.952C336.035 52.952 333.123 54.968 333.123 58.552V58.616C333.123 62.04 335.971 63.192 338.499 63.928C340.483 64.536 342.243 64.92 342.243 66.072V66.136C342.243 67 341.507 67.576 339.971 67.576C338.307 67.576 336.259 66.84 334.339 65.432L332.227 68.664C334.563 70.488 337.347 71.32 339.843 71.32ZM356.307 71.288C357.971 71.288 359.155 70.904 360.211 70.296V66.392C359.475 66.776 358.643 67 357.715 67C356.531 67 355.987 66.424 355.987 65.176V57.368H360.275V53.208H355.987V48.6H351.123V53.208H348.979V57.368H351.123V65.976C351.123 70.072 353.235 71.288 356.307 71.288ZM364.354 71H369.218V64.376C369.218 60.056 371.362 57.976 374.754 57.976H375.01V52.888C372.002 52.76 370.274 54.392 369.218 56.888V53.208H364.354V71ZM386.682 71.384C392.218 71.384 396.314 67.256 396.314 62.136V62.072C396.314 56.984 392.25 52.888 386.778 52.888C381.242 52.888 377.146 57.048 377.146 62.136V62.2C377.146 67.32 381.21 71.384 386.682 71.384ZM386.778 67.224C383.898 67.224 381.946 64.856 381.946 62.136V62.072C381.946 59.352 383.738 57.08 386.682 57.08C389.562 57.08 391.514 59.416 391.514 62.136V62.2C391.514 64.92 389.722 67.224 386.778 67.224ZM400.323 71H405.187V65.656L407.107 63.608L411.811 71H417.443L410.371 60.28L417.219 53.208H411.395L405.187 59.96V46.712H400.323V71ZM427.769 71.384C431.001 71.384 433.369 70.136 435.033 68.088L432.249 65.624C430.841 66.936 429.593 67.48 427.833 67.48C425.497 67.48 423.833 66.232 423.353 63.8H435.865C435.897 63.352 435.929 62.904 435.929 62.52C435.929 57.464 433.177 52.888 427.289 52.888C422.137 52.888 418.521 57.048 418.521 62.136V62.2C418.521 67.64 422.457 71.384 427.769 71.384ZM423.289 60.76C423.673 58.36 425.113 56.792 427.289 56.792C429.529 56.792 430.873 58.424 431.193 60.76H423.289ZM446.187 71.32C450.027 71.32 452.971 69.528 452.971 65.624V65.56C452.971 62.296 450.059 61.112 447.563 60.312C445.611 59.64 443.851 59.16 443.851 58.104V58.04C443.851 57.272 444.555 56.696 445.835 56.696C447.179 56.696 448.939 57.336 450.699 58.36L452.555 55C450.635 53.72 448.203 52.952 445.963 52.952C442.379 52.952 439.467 54.968 439.467 58.552V58.616C439.467 62.04 442.315 63.192 444.843 63.928C446.827 64.536 448.587 64.92 448.587 66.072V66.136C448.587 67 447.851 67.576 446.315 67.576C444.651 67.576 442.603 66.84 440.683 65.432L438.571 68.664C440.907 70.488 443.691 71.32 446.187 71.32Z"/><rect width="288" height="2" x="360" y="220" fill="#DE3636"/><path fill="#DE3636" d="M660.735 238H664.383V220.408H661.863L656.895 221.896L657.663 224.92L660.735 224.152V238ZM675.577 235.144C673.753 235.144 672.217 233.632 672.217 231.352V231.304C672.217 229.024 673.753 227.512 675.577 227.512C677.401 227.512 678.937 229.024 678.937 231.304V231.352C678.937 233.68 677.401 235.144 675.577 235.144ZM668.617 241.984H672.265V236.2C673.177 237.304 674.449 238.264 676.489 238.264C679.657 238.264 682.585 235.792 682.585 231.352V231.304C682.585 226.864 679.609 224.416 676.489 224.416C674.497 224.416 673.201 225.376 672.265 226.648V224.656H668.617V241.984ZM687.859 224.656H683.947L688.483 231.208L683.755 238H687.571L690.379 233.704L693.187 238H697.099L692.371 231.16L696.907 224.656H693.091L690.451 228.664L687.859 224.656Z"/><rect width="288" height="2" x="360" y="238" fill="#DE3636"/></svg>