<svg xmlns="http://www.w3.org/2000/svg" width="720" height="720" fill="none" viewBox="0 0 720 720"><rect width="480" height="480" fill="#fff" transform="translate(120 120)"/><g opacity=".4"><g opacity=".2"><rect width="20" height="480" x="580" y="120" stroke="#000"/><rect width="20" height="480" x="560" y="120" stroke="#000"/><rect width="20" height="480" x="540" y="120" stroke="#000"/><rect width="20" height="480" x="520" y="120" stroke="#000"/><rect width="20" height="480" x="500" y="120" stroke="#000"/><rect width="20" height="480" x="480" y="120" stroke="#000"/><rect width="20" height="480" x="460" y="120" stroke="#000"/><rect width="20" height="480" x="440" y="120" stroke="#000"/><rect width="20" height="480" x="420" y="120" stroke="#000"/><rect width="20" height="480" x="400" y="120" stroke="#000"/><rect width="20" height="480" x="380" y="120" stroke="#000"/><rect width="20" height="480" x="360" y="120" stroke="#000"/><rect width="20" height="480" x="340" y="120" stroke="#000"/><rect width="20" height="480" x="320" y="120" stroke="#000"/><rect width="20" height="480" x="300" y="120" stroke="#000"/><rect width="20" height="480" x="280" y="120" stroke="#000"/><rect width="20" height="480" x="260" y="120" stroke="#000"/><rect width="20" height="480" x="240" y="120" stroke="#000"/><rect width="20" height="480" x="220" y="120" stroke="#000"/><rect width="20" height="480" x="200" y="120" stroke="#000"/><rect width="20" height="480" x="180" y="120" stroke="#000"/><rect width="20" height="480" x="160" y="120" stroke="#000"/><rect width="20" height="480" x="140" y="120" stroke="#000"/><rect width="20" height="480" x="120" y="120" stroke="#000"/></g><g opacity=".2"><rect width="20" height="480" x="600" y="580" stroke="#000" transform="rotate(90 600 580)"/><rect width="20" height="480" x="600" y="560" stroke="#000" transform="rotate(90 600 560)"/><rect width="20" height="480" x="600" y="540" stroke="#000" transform="rotate(90 600 540)"/><rect width="20" height="480" x="600" y="520" stroke="#000" transform="rotate(90 600 520)"/><rect width="20" height="480" x="600" y="500" stroke="#000" transform="rotate(90 600 500)"/><rect width="20" height="480" x="600" y="480" stroke="#000" transform="rotate(90 600 480)"/><rect width="20" height="480" x="600" y="460" stroke="#000" transform="rotate(90 600 460)"/><rect width="20" height="480" x="600" y="440" stroke="#000" transform="rotate(90 600 440)"/><rect width="20" height="480" x="600" y="420" stroke="#000" transform="rotate(90 600 420)"/><rect width="20" height="480" x="600" y="400" stroke="#000" transform="rotate(90 600 400)"/><rect width="20" height="480" x="600" y="380" stroke="#000" transform="rotate(90 600 380)"/><rect width="20" height="480" x="600" y="360" stroke="#000" transform="rotate(90 600 360)"/><rect width="20" height="480" x="600" y="340" stroke="#000" transform="rotate(90 600 340)"/><rect width="20" height="480" x="600" y="320" stroke="#000" transform="rotate(90 600 320)"/><rect width="20" height="480" x="600" y="300" stroke="#000" transform="rotate(90 600 300)"/><rect width="20" height="480" x="600" y="280" stroke="#000" transform="rotate(90 600 280)"/><rect width="20" height="480" x="600" y="260" stroke="#000" transform="rotate(90 600 260)"/><rect width="20" height="480" x="600" y="240" stroke="#000" transform="rotate(90 600 240)"/><rect width="20" height="480" x="600" y="220" stroke="#000" transform="rotate(90 600 220)"/><rect width="20" height="480" x="600" y="200" stroke="#000" transform="rotate(90 600 200)"/><rect width="20" height="480" x="600" y="180" stroke="#000" transform="rotate(90 600 180)"/><rect width="20" height="480" x="600" y="160" stroke="#000" transform="rotate(90 600 160)"/><rect width="20" height="480" x="600" y="140" stroke="#000" transform="rotate(90 600 140)"/><rect width="20" height="480" x="600" y="120" stroke="#000" transform="rotate(90 600 120)"/></g></g><rect width="478" height="478" x="121" y="121" stroke="#AAA" stroke-width="2"/><g opacity=".4"><path fill="#000" fill-rule="evenodd" d="M165.06 318.106L274.318 397.046L229.807 530.579C226.736 539.791 237.273 547.533 245.146 541.85L360.043 458.92L474.846 541.834C482.719 547.52 493.259 539.778 490.188 530.564L445.682 397.046L554.94 318.106C562.803 312.425 558.785 300 549.084 300H413.449L369.489 168.406C366.446 159.296 353.559 159.298 350.519 168.408L306.6 300H170.916C161.215 300 157.197 312.425 165.06 318.106ZM293.316 460.217L319.193 382.587L257.481 338H333.978L360.016 259.982L386.079 338H462.519L400.807 382.587L426.665 460.162L360.05 412.051L293.316 460.217Z" clip-rule="evenodd"/></g><path fill="#137BC2" fill-opacity=".3" stroke="#137BC2" stroke-width="2" d="M369 171.2C369 176.171 364.971 180.2 360 180.2C355.029 180.2 351 176.171 351 171.2C351 166.229 355.029 162.2 360 162.2C364.971 162.2 369 166.229 369 171.2Z"/><path fill="#137BC2" fill-opacity=".3" stroke="#137BC2" stroke-width="2" d="M180 310C180 314.971 175.971 319 171 319C166.029 319 162 314.971 162 310C162 305.029 166.029 301 171 301C175.971 301 180 305.029 180 310Z"/><path fill="#137BC2" fill-opacity=".3" stroke="#137BC2" stroke-width="2" d="M558 310C558 314.971 553.971 319 549 319C544.029 319 540 314.971 540 310C540 305.029 544.029 301 549 301C553.971 301 558 305.029 558 310Z"/><path fill="#137BC2" fill-opacity=".3" stroke="#137BC2" stroke-width="2" d="M490 534C490 538.971 485.971 543 481 543C476.029 543 472 538.971 472 534C472 529.029 476.029 525 481 525C485.971 525 490 529.029 490 534Z"/><path fill="#137BC2" fill-opacity=".3" stroke="#137BC2" stroke-width="2" d="M248 534C248 538.971 243.971 543 239 543C234.029 543 230 538.971 230 534C230 529.029 234.029 525 239 525C243.971 525 248 529.029 248 534Z"/><rect width="83" height="2" x="549" y="300" fill="#137BC2"/><path fill="#137BC2" d="M649.168 319.288C653.824 319.288 656.92 315.304 656.92 310.264V310.216C656.92 305.152 653.824 301.24 649.216 301.24C644.584 301.24 641.464 305.224 641.464 310.264V310.312C641.464 315.376 644.512 319.288 649.168 319.288ZM649.216 315.976C646.816 315.976 645.256 313.504 645.256 310.264V310.216C645.256 306.976 646.792 304.552 649.168 304.552C651.544 304.552 653.128 307.048 653.128 310.264V310.312C653.128 313.528 651.616 315.976 649.216 315.976ZM659.539 319H663.427V315.112H659.539V319ZM672.806 319.288C676.79 319.288 679.406 316.96 679.406 313.288V313.24C679.406 309.352 676.694 307.672 673.31 307.672C672.302 307.672 671.63 307.816 670.91 308.008L671.126 304.768H678.638V301.528H667.958L667.454 310.12L669.614 311.56C670.454 311.2 671.462 310.888 672.59 310.888C674.486 310.888 675.782 311.8 675.782 313.36V313.408C675.782 315.016 674.606 315.952 672.758 315.952C671.198 315.952 669.878 315.232 668.534 314.008L666.302 316.672C667.982 318.28 670.046 319.288 672.806 319.288ZM689.776 316.144C687.952 316.144 686.416 314.632 686.416 312.352V312.304C686.416 310.024 687.952 308.512 689.776 308.512C691.6 308.512 693.136 310.024 693.136 312.304V312.352C693.136 314.68 691.6 316.144 689.776 316.144ZM682.816 322.984H686.464V317.2C687.376 318.304 688.648 319.264 690.688 319.264C693.856 319.264 696.784 316.792 696.784 312.352V312.304C696.784 307.864 693.808 305.416 690.688 305.416C688.696 305.416 687.4 306.376 686.464 307.648V305.656H682.816V322.984ZM702.058 305.656H698.146L702.682 312.208L697.954 319H701.77L704.578 314.704L707.386 319H711.298L706.57 312.16L711.106 305.656H707.29L704.65 309.664L702.058 305.656Z"/><rect width="83" height="2" x="549" y="318" fill="#137BC2"/></svg>